<svg width="22" height="22" viewBox="0 0 22 22" fill="none" xmlns="http://www.w3.org/2000/svg">
<path d="M9.80835 15.3542H7.60835C5.39002 15.3542 4.35419 14.3183 4.35419 12.1V9.90001C4.35419 7.68168 5.39002 6.64584 7.60835 6.64584H9.80835C12.0267 6.64584 13.0625 7.68168 13.0625 9.90001V12.1C13.0625 14.3183 12.0267 15.3542 9.80835 15.3542Z" fill="#67676B"/>
<path d="M15.5833 19.0208H6.41665C2.37415 19.0208 1.14581 17.7925 1.14581 13.75V8.24999C1.14581 4.20749 2.37415 2.97916 6.41665 2.97916H15.5833C19.6258 2.97916 20.8541 4.20749 20.8541 8.24999V13.75C20.8541 17.7925 19.6258 19.0208 15.5833 19.0208ZM6.41665 4.35416C3.13498 4.35416 2.52081 4.97749 2.52081 8.24999V13.75C2.52081 17.0225 3.13498 17.6458 6.41665 17.6458H15.5833C18.865 17.6458 19.4791 17.0225 19.4791 13.75V8.24999C19.4791 4.97749 18.865 4.35416 15.5833 4.35416H6.41665Z" fill="#67676B"/>
</svg>
